<?xml version="1.0" encoding="UTF-8"?>
<svg id="Layer_2" data-name="Layer 2" xmlns="http://www.w3.org/2000/svg" viewBox="0 0 1024 231.7">
  <defs>
    <style>
      .cls-1 {
        fill: #fff;
      }

      .cls-2 {
        fill: #f1957c;
      }
    </style>
  </defs>
  <g id="Text">
    <g>
      <rect class="cls-2" width="1024" height="215.4"/>
      <g>
        <path class="cls-1" d="M298.5,84.6c-3.1,3.1-8.8,7.1-16.9,11.9-1.6,.8-2,1.9-1.3,3.1,5.9,7.7,8.8,16.1,8.8,25.4s-.7,7.4-2,11.3c-2.2,6.5-7,11.8-14.4,16-6,3.1-12.2,5-18.5,5.6-5.8,.4-13.4-1.3-23-4.9-3.2-1.2-5.4-.8-6.5,1.1-1.1,1.8-3.4,3.7-6.8,5.8-4.3,2.9-8.5,4.3-12.6,4.3s-4.8-.7-7.2-2c-5.6-3.2-8.5-8.6-8.5-16s2.5-15.7,7.4-27.5c4.4-10.2,12.7-22.6,24.7-37.1,4.8-5.8,8.9-10.4,12.3-14s6.1-6.2,8.2-7.7c1.7-1.3,2.7-2.8,3.1-4.5,.2-1.2,.5-2.6,.7-4.1,.2-1.6,.5-3.4,.7-5.4,.4-2.4,2.4-4.4,6.1-5.9,3.2-1.3,6.2-2,8.8-2s2.9,.7,2.9,2.2c0,2.2,.8,3,2.3,2.5,1.4-.6,2.9-1.1,4.3-1.6,1.4-.5,2.8-1,4.1-1.6,5.8-1.8,10.3-2.5,13.5-2,12.7,1.6,19.1,9.7,19.1,24.5v2.2c0,.7,0,1.5-.2,2.3-.6,7.1-3.7,13.2-9.2,18.4Zm-61.4-2.5c-.4,0-.8,.3-1.4,.9-7.2,7-14.3,17.2-21.2,30.6-6.7,12.6-10.3,22-10.8,28.1-.4,4.2,.8,6.3,3.4,6.3,4.2,0,10.3-9.4,18.2-28.3,6.6-15.6,10.7-27.4,12.4-35.5,.4-1.4,.2-2.2-.5-2.2Zm34.2,34.9c0-2.8-1.1-7.2-3.4-13.3-.6-1.8-1.7-2.5-3.2-2.2-1,.2-3.8,.5-8.6,.7-3.6,0-5.5,.4-5.6,1.3-4.8,14.6-9.3,25.7-13.5,33.3-1.2,1.9-1.1,3.3,.2,4.1,1.9,1.1,4.7,1.6,8.3,1.6,11.4,0,19-4.3,22.9-12.8,2-4.7,3.1-8.9,3.1-12.8Zm18.4-54.5c0-6.2-2-10-6.1-11.2-1.8-.6-3.6-.9-5.4-.9-4.3,0-9.1,1.7-14.4,5.2-1.3,1-2.2,2.5-2.7,4.7-1.2,5-2.2,9.2-3.1,12.5-.9,3.3-1.7,5.9-2.2,7.8-.6,1.8,0,2.9,1.8,3.4,5,1.1,9.1,2.7,12.1,4.9,.1,.1,.4,.2,.7,.2,1.9,0,5-2.3,9.2-6.8,4.4-4.6,7.4-8.9,9-13,.8-2,1.3-4.3,1.3-6.8Z"/>
        <path class="cls-1" d="M367.8,106.8c0,8.6-2.6,18.2-7.7,28.6-7.8,15.7-18.8,23.6-32.9,23.6s-8-.7-11.7-2.2c-8.4-3.6-12.6-10.3-12.6-20.2s1.3-12,3.8-19.8c3.1-9.2,8.6-16.9,16.6-22.9,7-5.3,13.5-8,19.6-8.3,3,0,4.9,.6,5.8,1.8,1.2,1.6,.7,2.9-1.4,4.1-1.8,1-4.7,4-8.6,9-5.3,6.4-9.2,12.5-11.9,18.4-4,8.9-5.9,15.8-5.9,20.7s1.1,6,3.2,7.2c1.6,.8,3.2,1.3,4.9,1.3,4.9,0,9.4-2.8,13.3-8.5,2.2-3,4.3-7.9,6.5-14.6,1.9-5.4,2.9-8.9,2.9-10.6s-.7-2.8-2-3.8c-2.6-1.9-4-4.9-4-9,0-7.7,3.3-11.5,9.9-11.5s4.4,.7,6.8,2c3.7,2.2,5.6,7,5.6,14.6Z"/>
        <path class="cls-1" d="M467.4,147.8c-5,5-10.9,8.1-17.6,9.2-9.8,1.8-18.1,1.5-24.8-.9-6.5-2.5-9.7-6.6-9.7-12.2s1.4-9.1,4.3-17.6c1.3-3.7,2.6-7,3.8-9.8,1.2-2.8,2.3-5.2,3.2-7.3,1.4-2.6,2.2-4.8,2.2-6.5s-.5-2-1.6-2.3c-2.4-.7-6.1,1.4-11.1,6.3-5,4.9-10.6,13.3-16.8,25.2-2.6,5-4.7,9.2-6.3,12.6-1.6,3.4-2.6,6-3.2,7.9-.5,1.9-1.4,3.4-2.9,4.3-3.6,2.2-7.1,2.7-10.6,1.6-1.8-.6-2.6-1.9-2.5-3.8,.1-1.6,2.8-13,8.1-34.2,2.6-10.6,4.7-18.6,6.2-24.2,1.5-5.6,2.4-8.8,2.6-9.6,1-2.4,2.6-4,5-4.9,1.2-.5,3.4-.7,6.5-.5,3.2,.1,5.3,.6,6.1,1.4,.8,.8,1,2.3,.5,4.5-1,3.5-2.9,9.8-5.9,18.9-.6,1.4-.5,2.2,.2,2.2s1.3-.4,1.8-1.3c12.5-15.7,23.2-23.6,32.2-23.6s3.7,.4,5.4,1.1c4.7,2,7,5.4,7,10.1s-.4,5.1-1.3,8.1c-1.1,4.2-3.4,11-7,20.5-1.9,5.2-3.4,9.1-4.3,11.7-1,2.6-1.5,4.1-1.6,4.3-.4,1.3-.5,2.3-.5,3.1,0,1.8,.9,3.2,2.7,4.3,1.8,1.1,5.2,1.6,10.3,1.6s5.2-1.1,8.8-3.2c2-1.2,3.9-2.5,5.6-3.9,1.7-1.4,3.1-2.9,4.3-4.6,.6-.7,1.1-.5,1.4,.5,.8,2,1.1,4.4,.9,7-.2,2-.7,3.4-1.3,4Z"/>
        <path class="cls-1" d="M516.5,147.8c-5,5-10.9,8.1-17.6,9.2-3.2,.5-6.8,.8-10.6,1.1-2.4,0-4.3,.3-5.8,.9-1.7,1-3.7,3.1-5.9,6.5-.4,.6-.9,1.8-1.7,3.6-.8,1.8-1.8,4.3-3,7.4-1.2,3.1-2.2,5.7-3.1,7.8-.9,2.1-1.8,3.7-2.6,5-4.2,5.8-8.5,8.6-13,8.6s-3.5-.5-5.2-1.4c-3-1.6-4.5-4.3-4.5-8.1,0-7.2,4.3-13.5,13-18.9,.8-.5,1.6-1.4,2.2-2.9,.5-1.3,1-2.8,1.6-4.4,.6-1.6,1.3-3.5,2.2-5.5,.7-1.2,1.1-3,1.1-5.4,.1-3.8,.8-8.8,2-14.8,1.2-6,2.9-13.1,5.2-21.4,1.3-4.2,2.6-8.4,4-12.6,1.3-4.2,2.6-8.4,4-12.6,.7-3,2.1-4.8,4.1-5.4,4.6-1.3,8.8-1.4,12.8-.4,1.1,.2,1.9,1,2.6,2.3,.7,1.3,.9,2.7,.6,4.1-2.3,6.5-4.6,13.4-7,20.8-2.4,7.4-5,15.2-7.7,23.5-.5,1.7-1,3.5-1.4,5.6-.5,2-1,4.3-1.6,6.7-.1,.8,0,1.4,.2,1.6,.1,.1,.5,.1,1.3,0,1.8-.5,6.6-.7,14.4-.7s5.2-1.1,8.8-3.2c2-1.2,3.9-2.5,5.6-3.9,1.7-1.4,3.1-2.9,4.3-4.6,.6-.7,1.1-.5,1.4,.5,.8,2,1.1,4.4,.9,7-.2,2-.7,3.4-1.3,4Zm-17.8-88c-1.4,0-2.7-.2-3.8-.7-3.8-1.7-5.8-4.4-5.8-8.1s.8-5.3,2.5-8.5c1.6-3.2,4.7-4.9,9.5-4.9s2.3,.2,3.4,.5c3.8,1.7,5.8,4.6,5.8,8.6s-.5,4.3-1.4,5.9c-2.9,4.7-6.3,7-10.3,7Z"/>
        <path class="cls-1" d="M579.5,106.8c0,8.6-2.6,18.2-7.7,28.6-7.8,15.7-18.8,23.6-32.9,23.6s-8-.7-11.7-2.2c-8.4-3.6-12.6-10.3-12.6-20.2s1.3-12,3.8-19.8c3.1-9.2,8.6-16.9,16.6-22.9,7-5.3,13.5-8,19.6-8.3,3,0,4.9,.6,5.8,1.8,1.2,1.6,.7,2.9-1.4,4.1-1.8,1-4.7,4-8.6,9-5.3,6.4-9.2,12.5-11.9,18.4-4,8.9-5.9,15.8-5.9,20.7s1.1,6,3.2,7.2c1.6,.8,3.2,1.3,4.9,1.3,4.9,0,9.4-2.8,13.3-8.5,2.2-3,4.3-7.9,6.5-14.6,1.9-5.4,2.9-8.9,2.9-10.6s-.7-2.8-2-3.8c-2.6-1.9-4-4.9-4-9,0-7.7,3.3-11.5,9.9-11.5s4.4,.7,6.8,2c3.7,2.2,5.6,7,5.6,14.6Z"/>
        <path class="cls-1" d="M679.6,147.8c-5,5-10.9,8.1-17.6,9.2-1.6,.2-3.1,.5-4.6,.6-1.5,.2-3.1,.3-4.8,.3-7.9,0-13.7-1.3-17.5-3.8-2.4-1.7-3.6-4.4-3.6-8.1s.4-4.7,1.1-8.3c.1-.5,.2-1,.2-1.4s-.1-.4-.4-.2c-.1,.1-.3,.3-.5,.5-.2,.2-.5,.6-.7,1.1-9.4,13.4-18.8,20.2-28.4,20.2s-4.7-.4-7-1.1c-5.4-1.9-8.1-6.1-8.1-12.6s0-1.3,0-2.1c0-.8,.2-1.6,.3-2.6,.5-5.6,5.6-23.3,15.5-53.1,.8-2.6,2.8-4,5.8-4s4.4,.4,7,1.3c4.8,1.4,7.2,3.4,7.2,5.8s-.3,1.8-.9,3.2c-.7,1.7-1.7,4.1-3,7.4-1.3,3.2-2.9,7.4-4.8,12.4-4.6,11.8-7.1,19-7.6,21.8-.2,1.4-.4,2.7-.6,3.7-.2,1-.3,1.8-.3,2.4,0,2.6,1.6,4,4.9,4s4.3-1.6,7.6-4.9c3.8-3.8,8.8-12.5,14.8-25.9,2.3-5.2,4.1-9.6,5.6-13.4,1.4-3.8,2.6-7,3.4-9.6,1.3-4.7,5-6.7,11.2-6.1,5.6,.6,8.5,2,8.5,4.1s-.4,2.6-1.3,4.1c-.8,1.6-3.2,8.2-7,19.8-4.1,12-6.4,19.3-7,22-1.1,5.3-.9,8.6,.5,10.1,2.3,2.3,6.4,3.4,12.4,3.4s5.2-1.1,8.8-3.2c2-1.2,3.9-2.5,5.6-3.9,1.7-1.4,3.1-2.9,4.3-4.6,.6-.7,1.1-.5,1.4,.5,.8,2,1.1,4.4,.9,7-.2,2-.7,3.4-1.3,4Z"/>
        <path class="cls-1" d="M754.1,147.8c-5.3,5.3-11.2,8.3-17.6,9.2-10.9,1.8-19,1.5-24.2-.9s-7.8-6-7.8-10.8,.2-2.6,.5-4.3c.6-2.8,1.3-5.6,2.2-8.6,.9-3,2-6.2,3.3-9.7,1.9-5.4,3.4-8.9,4.3-10.4,.8-1.4,.8-3.1,0-4.9-.8-1.7-3.2-3.6-7.2-5.8-1-.6-1.7,0-2.3,1.6-3,7.4-5.3,13-6.8,16.8-1.6,3.8-2.4,5.8-2.5,6-5,10-11.3,18.1-18.9,24.3-4.7,3.6-9.7,5.8-14.9,6.7-.7,.2-1.3-.1-1.6-1.1-.8-1.8-1.3-3.8-1.3-5.9s.2-1.7,.7-1.8c4.3-1,7.8-2.4,10.4-4.3,1.9-1.4,4.6-4.1,8.1-8.1,2.4-3,5.4-8.2,9-15.5,4-8,7-16,9.2-23.8,.1-.5,.2-.8,.3-1,0-.2,0-.3,0-.4-.1-.7-.5-1.8-1.3-3.2-.7-1.4-1.1-2.9-1.1-4.5s0-1,0-1.6c0-.6,.1-1.2,.3-1.8,1.3-6.8,4.7-10.2,10.3-10.1,4.7,.1,7.3,3.1,7.7,8.8,.1,1.1-.2,2.6-.9,4.7-.2,.7-.2,1.3,0,1.6,.2,.4,.8,.8,1.6,1.2,.8,.4,2,1,3.4,1.6,1.4,.7,3.2,1.6,5.4,2.8,4.3,2.4,7.2,4.2,8.6,5.4,2.4,2,3.4,4.6,2.9,7.7-.4,1.9-2.5,7.6-6.3,16.9-1.9,4.6-3.4,8.3-4.4,11.1-1,2.8-1.7,4.8-1.9,5.9-.7,3.5,.7,5.6,4.1,6.3,1.4,.4,4.3,.4,8.6,.2,2.3-.1,5.2-1.2,8.8-3.2,4.3-2.4,7.6-5.2,9.9-8.5,.6-.7,1.1-.5,1.4,.5,.8,2,1.1,4.4,.9,7-.2,2-.7,3.4-1.3,4Z"/>
        <path class="cls-1" d="M858.1,156.4c-2.7,1.4-5.6,1.9-8.7,1.5-5.4-.5-8.1-3.2-8.1-8.3s.2-2.5,.5-4c1.3-4.7,3-7.7,5-9.2,2-1.4,4.9-2,8.5-1.6,5.9,.5,8.8,3.8,8.8,9.9s-.2,3.5-.7,5c-.8,3-2.6,5.2-5.3,6.6Zm36.1-95.8c-2.4,6.1-5.8,14.6-10.3,25.5-8.9,22.1-13.7,33.8-14.6,35.3-1.2,1.8-4.2,2.1-9,.9-3-.8-4.3-2.8-3.8-5.8,.1-.7,1-4.1,2.7-10.3,1.7-6.1,4.1-15,7.4-26.6,3.2-11.6,5.8-20.7,7.6-27.1,1.8-6.4,2.9-10.2,3.2-11.4,.8-2.5,2.8-3.8,5.9-3.8s5,.6,8.3,1.8c4.8,1.6,7.2,4.3,7.2,8.1s-.1,1.4-.4,2.3c-.5,1.3-1.9,5-4.3,11.1Z"/>
      </g>
    </g>
  </g>
</svg>